{
	"patcher" : 	{
		"fileversion" : 1,
		"rect" : [ 54.0, 302.0, 773.0, 503.0 ],
		"bglocked" : 0,
		"defrect" : [ 54.0, 302.0, 773.0, 503.0 ],
		"openrect" : [ 0.0, 0.0, 0.0, 0.0 ],
		"openinpresentation" : 0,
		"default_fontsize" : 12.0,
		"default_fontface" : 0,
		"default_fontname" : "Arial",
		"gridonopen" : 0,
		"gridsize" : [ 15.0, 15.0 ],
		"gridsnaponopen" : 0,
		"toolbarvisible" : 1,
		"boxanimatetime" : 200,
		"imprint" : 0,
		"metadata" : [  ],
		"boxes" : [ 			{
				"box" : 				{
					"maxclass" : "newobj",
					"text" : "scale 1 8 0. 1.",
					"patching_rect" : [ 41.0, 166.0, 101.0, 20.0 ],
					"fontname" : "Arial",
					"numinlets" : 6,
					"numoutlets" : 1,
					"id" : "obj-1",
					"fontsize" : 12.0,
					"outlettype" : [ "float" ]
				}

			}
, 			{
				"box" : 				{
					"maxclass" : "newobj",
					"text" : "loadbang",
					"patching_rect" : [ 41.0, 114.0, 61.0, 20.0 ],
					"fontname" : "Arial",
					"numinlets" : 1,
					"numoutlets" : 1,
					"id" : "obj-2",
					"fontsize" : 12.0,
					"outlettype" : [ "bang" ]
				}

			}
, 			{
				"box" : 				{
					"maxclass" : "newobj",
					"text" : "thispoly~",
					"patching_rect" : [ 41.0, 142.0, 67.0, 20.0 ],
					"fontname" : "Arial",
					"numinlets" : 1,
					"numoutlets" : 2,
					"id" : "obj-3",
					"fontsize" : 12.0,
					"outlettype" : [ "int", "int" ]
				}

			}
, 			{
				"box" : 				{
					"maxclass" : "message",
					"text" : "set $1",
					"patching_rect" : [ 41.0, 190.0, 49.0, 18.0 ],
					"fontname" : "Arial",
					"numinlets" : 2,
					"numoutlets" : 1,
					"id" : "obj-4",
					"fontsize" : 12.0,
					"outlettype" : [ "" ]
				}

			}
, 			{
				"box" : 				{
					"maxclass" : "message",
					"text" : "-0.142857",
					"patching_rect" : [ 79.0, 216.0, 69.0, 18.0 ],
					"fontname" : "Arial",
					"numinlets" : 2,
					"numoutlets" : 1,
					"id" : "obj-5",
					"fontsize" : 12.0,
					"outlettype" : [ "" ]
				}

			}
, 			{
				"box" : 				{
					"maxclass" : "newobj",
					"text" : "select 0",
					"patching_rect" : [ 182.0, 66.0, 58.0, 20.0 ],
					"fontname" : "Arial",
					"numinlets" : 2,
					"numoutlets" : 2,
					"id" : "obj-6",
					"fontsize" : 12.0,
					"outlettype" : [ "bang", "" ]
				}

			}
, 			{
				"box" : 				{
					"maxclass" : "newobj",
					"text" : "pipe 10",
					"patching_rect" : [ 265.0, 162.0, 55.0, 20.0 ],
					"fontname" : "Arial",
					"numinlets" : 2,
					"numoutlets" : 1,
					"id" : "obj-7",
					"fontsize" : 12.0,
					"outlettype" : [ "" ]
				}

			}
, 			{
				"box" : 				{
					"maxclass" : "newobj",
					"text" : "pipe 10",
					"patching_rect" : [ 411.0, 160.0, 55.0, 20.0 ],
					"fontname" : "Arial",
					"numinlets" : 2,
					"numoutlets" : 1,
					"id" : "obj-8",
					"fontsize" : 12.0,
					"outlettype" : [ "" ]
				}

			}
, 			{
				"box" : 				{
					"maxclass" : "newobj",
					"text" : "pipe 10",
					"patching_rect" : [ 576.0, 160.0, 55.0, 20.0 ],
					"fontname" : "Arial",
					"numinlets" : 2,
					"numoutlets" : 1,
					"id" : "obj-9",
					"fontsize" : 12.0,
					"outlettype" : [ "" ]
				}

			}
, 			{
				"box" : 				{
					"maxclass" : "flonum",
					"patching_rect" : [ 155.0, 153.0, 68.0, 20.0 ],
					"bgcolor" : [ 0.866667, 0.866667, 0.866667, 1.0 ],
					"fontname" : "Arial",
					"numinlets" : 1,
					"htextcolor" : [ 0.870588, 0.870588, 0.870588, 1.0 ],
					"numoutlets" : 2,
					"id" : "obj-10",
					"fontsize" : 12.0,
					"outlettype" : [ "float", "bang" ],
					"triscale" : 0.9
				}

			}
, 			{
				"box" : 				{
					"maxclass" : "inlet",
					"patching_rect" : [ 613.0, 131.0, 15.0, 15.0 ],
					"numinlets" : 0,
					"numoutlets" : 1,
					"id" : "obj-11",
					"outlettype" : [ "" ],
					"comment" : "max pause between legs"
				}

			}
, 			{
				"box" : 				{
					"maxclass" : "inlet",
					"patching_rect" : [ 476.0, 142.0, 15.0, 15.0 ],
					"numinlets" : 0,
					"numoutlets" : 1,
					"id" : "obj-12",
					"outlettype" : [ "" ],
					"comment" : "max walk time"
				}

			}
, 			{
				"box" : 				{
					"maxclass" : "inlet",
					"patching_rect" : [ 303.0, 133.0, 15.0, 15.0 ],
					"numinlets" : 0,
					"numoutlets" : 1,
					"id" : "obj-13",
					"outlettype" : [ "" ],
					"comment" : "max cf"
				}

			}
, 			{
				"box" : 				{
					"maxclass" : "button",
					"patching_rect" : [ 213.0, 95.0, 15.0, 15.0 ],
					"numinlets" : 1,
					"numoutlets" : 1,
					"id" : "obj-14",
					"outlettype" : [ "bang" ]
				}

			}
, 			{
				"box" : 				{
					"maxclass" : "outlet",
					"patching_rect" : [ 271.0, 356.0, 15.0, 15.0 ],
					"numinlets" : 1,
					"numoutlets" : 0,
					"id" : "obj-15",
					"comment" : ""
				}

			}
, 			{
				"box" : 				{
					"maxclass" : "inlet",
					"patching_rect" : [ 150.0, 45.0, 15.0, 15.0 ],
					"numinlets" : 0,
					"numoutlets" : 1,
					"id" : "obj-16",
					"outlettype" : [ "" ],
					"comment" : "on/off"
				}

			}
, 			{
				"box" : 				{
					"maxclass" : "newobj",
					"text" : "zmap 0 1000 1000 2000",
					"patching_rect" : [ 502.0, 184.0, 161.0, 20.0 ],
					"fontname" : "Arial",
					"numinlets" : 5,
					"numoutlets" : 1,
					"id" : "obj-17",
					"fontsize" : 12.0,
					"outlettype" : [ "float" ]
				}

			}
, 			{
				"box" : 				{
					"maxclass" : "inlet",
					"patching_rect" : [ 566.0, 143.0, 15.0, 15.0 ],
					"numinlets" : 0,
					"numoutlets" : 1,
					"id" : "obj-18",
					"outlettype" : [ "" ],
					"comment" : "min pause between legs"
				}

			}
, 			{
				"box" : 				{
					"maxclass" : "newobj",
					"text" : "zmap 0 1000 500 1000",
					"patching_rect" : [ 343.0, 184.0, 152.0, 20.0 ],
					"fontname" : "Arial",
					"numinlets" : 5,
					"numoutlets" : 1,
					"id" : "obj-19",
					"fontsize" : 12.0,
					"outlettype" : [ "float" ]
				}

			}
, 			{
				"box" : 				{
					"maxclass" : "inlet",
					"patching_rect" : [ 412.0, 143.0, 15.0, 15.0 ],
					"numinlets" : 0,
					"numoutlets" : 1,
					"id" : "obj-20",
					"outlettype" : [ "" ],
					"comment" : "min walk time"
				}

			}
, 			{
				"box" : 				{
					"maxclass" : "newobj",
					"text" : "zmap 0 1000 0 1000",
					"patching_rect" : [ 206.0, 185.0, 137.0, 20.0 ],
					"fontname" : "Arial",
					"numinlets" : 5,
					"numoutlets" : 1,
					"id" : "obj-21",
					"fontsize" : 12.0,
					"outlettype" : [ "float" ]
				}

			}
, 			{
				"box" : 				{
					"maxclass" : "inlet",
					"patching_rect" : [ 234.0, 143.0, 15.0, 15.0 ],
					"numinlets" : 0,
					"numoutlets" : 1,
					"id" : "obj-22",
					"outlettype" : [ "" ],
					"comment" : "min cf"
				}

			}
, 			{
				"box" : 				{
					"maxclass" : "gswitch2",
					"patching_rect" : [ 412.0, 321.0, 39.0, 32.0 ],
					"numinlets" : 2,
					"numoutlets" : 2,
					"id" : "obj-23",
					"outlettype" : [ "", "" ]
				}

			}
, 			{
				"box" : 				{
					"maxclass" : "newobj",
					"text" : "random 1000",
					"patching_rect" : [ 343.0, 123.0, 90.0, 20.0 ],
					"fontname" : "Arial",
					"numinlets" : 2,
					"numoutlets" : 1,
					"id" : "obj-24",
					"fontsize" : 12.0,
					"outlettype" : [ "int" ]
				}

			}
, 			{
				"box" : 				{
					"maxclass" : "button",
					"patching_rect" : [ 382.0, 95.0, 15.0, 15.0 ],
					"numinlets" : 1,
					"numoutlets" : 1,
					"id" : "obj-25",
					"outlettype" : [ "bang" ]
				}

			}
, 			{
				"box" : 				{
					"maxclass" : "newobj",
					"text" : "random 1000",
					"patching_rect" : [ 475.0, 122.0, 90.0, 20.0 ],
					"fontname" : "Arial",
					"numinlets" : 2,
					"numoutlets" : 1,
					"id" : "obj-26",
					"fontsize" : 12.0,
					"outlettype" : [ "int" ]
				}

			}
, 			{
				"box" : 				{
					"maxclass" : "newobj",
					"text" : "random 1000",
					"patching_rect" : [ 206.0, 124.0, 90.0, 20.0 ],
					"fontname" : "Arial",
					"numinlets" : 2,
					"numoutlets" : 1,
					"id" : "obj-27",
					"fontsize" : 12.0,
					"outlettype" : [ "int" ]
				}

			}
, 			{
				"box" : 				{
					"maxclass" : "newobj",
					"text" : "pipe 0.",
					"patching_rect" : [ 435.0, 293.0, 50.0, 20.0 ],
					"fontname" : "Arial",
					"numinlets" : 2,
					"numoutlets" : 1,
					"id" : "obj-28",
					"fontsize" : 12.0,
					"outlettype" : [ "" ]
				}

			}
, 			{
				"box" : 				{
					"maxclass" : "flonum",
					"patching_rect" : [ 343.0, 213.0, 59.0, 20.0 ],
					"bgcolor" : [ 0.866667, 0.866667, 0.866667, 1.0 ],
					"fontname" : "Arial",
					"numinlets" : 1,
					"htextcolor" : [ 0.870588, 0.870588, 0.870588, 1.0 ],
					"numoutlets" : 2,
					"id" : "obj-29",
					"fontsize" : 12.0,
					"outlettype" : [ "float", "bang" ],
					"triscale" : 0.9
				}

			}
, 			{
				"box" : 				{
					"maxclass" : "flonum",
					"patching_rect" : [ 206.0, 212.0, 59.0, 20.0 ],
					"bgcolor" : [ 0.866667, 0.866667, 0.866667, 1.0 ],
					"fontname" : "Arial",
					"numinlets" : 1,
					"htextcolor" : [ 0.870588, 0.870588, 0.870588, 1.0 ],
					"numoutlets" : 2,
					"id" : "obj-30",
					"fontsize" : 12.0,
					"outlettype" : [ "float", "bang" ],
					"triscale" : 0.9
				}

			}
, 			{
				"box" : 				{
					"maxclass" : "newobj",
					"text" : "pack 0. 0.",
					"patching_rect" : [ 271.0, 240.0, 69.0, 20.0 ],
					"fontname" : "Arial",
					"numinlets" : 2,
					"numoutlets" : 1,
					"id" : "obj-31",
					"fontsize" : 12.0,
					"outlettype" : [ "" ]
				}

			}
, 			{
				"box" : 				{
					"maxclass" : "newobj",
					"text" : "line 0.",
					"patching_rect" : [ 271.0, 263.0, 50.0, 20.0 ],
					"fontname" : "Arial",
					"numinlets" : 3,
					"numoutlets" : 3,
					"id" : "obj-32",
					"fontsize" : 12.0,
					"outlettype" : [ "", "", "" ]
				}

			}
, 			{
				"box" : 				{
					"maxclass" : "comment",
					"text" : "this is the part that's different from walker: when turned off it returns to its generic panning position, not 0, and it does it in the same amount of time as the last ramp",
					"linecount" : 8,
					"patching_rect" : [ 21.0, 243.0, 123.0, 117.0 ],
					"fontname" : "Arial",
					"numinlets" : 1,
					"numoutlets" : 0,
					"id" : "obj-33",
					"fontsize" : 12.0
				}

			}
, 			{
				"box" : 				{
					"maxclass" : "panel",
					"patching_rect" : [ 32.0, 109.0, 120.0, 130.0 ],
					"bgcolor" : [ 0.74902, 0.74902, 0.74902, 1.0 ],
					"rounded" : 0,
					"numinlets" : 1,
					"numoutlets" : 0,
					"border" : 1,
					"id" : "obj-34"
				}

			}
 ],
		"lines" : [ 			{
				"patchline" : 				{
					"source" : [ "obj-11", 0 ],
					"destination" : [ "obj-17", 4 ],
					"hidden" : 0,
					"midpoints" : [  ]
				}

			}
, 			{
				"patchline" : 				{
					"source" : [ "obj-9", 0 ],
					"destination" : [ "obj-17", 3 ],
					"hidden" : 0,
					"midpoints" : [  ]
				}

			}
, 			{
				"patchline" : 				{
					"source" : [ "obj-18", 0 ],
					"destination" : [ "obj-9", 0 ],
					"hidden" : 0,
					"midpoints" : [  ]
				}

			}
, 			{
				"patchline" : 				{
					"source" : [ "obj-26", 0 ],
					"destination" : [ "obj-17", 0 ],
					"hidden" : 0,
					"midpoints" : [  ]
				}

			}
, 			{
				"patchline" : 				{
					"source" : [ "obj-25", 0 ],
					"destination" : [ "obj-26", 0 ],
					"hidden" : 0,
					"midpoints" : [  ]
				}

			}
, 			{
				"patchline" : 				{
					"source" : [ "obj-17", 0 ],
					"destination" : [ "obj-28", 1 ],
					"hidden" : 0,
					"midpoints" : [  ]
				}

			}
, 			{
				"patchline" : 				{
					"source" : [ "obj-12", 0 ],
					"destination" : [ "obj-19", 4 ],
					"hidden" : 0,
					"midpoints" : [  ]
				}

			}
, 			{
				"patchline" : 				{
					"source" : [ "obj-28", 0 ],
					"destination" : [ "obj-23", 1 ],
					"hidden" : 0,
					"midpoints" : [  ]
				}

			}
, 			{
				"patchline" : 				{
					"source" : [ "obj-32", 1 ],
					"destination" : [ "obj-28", 0 ],
					"hidden" : 0,
					"midpoints" : [  ]
				}

			}
, 			{
				"patchline" : 				{
					"source" : [ "obj-8", 0 ],
					"destination" : [ "obj-19", 3 ],
					"hidden" : 0,
					"midpoints" : [  ]
				}

			}
, 			{
				"patchline" : 				{
					"source" : [ "obj-16", 0 ],
					"destination" : [ "obj-23", 0 ],
					"hidden" : 0,
					"midpoints" : [ 159.0, 298.0, 421.5, 298.0 ]
				}

			}
, 			{
				"patchline" : 				{
					"source" : [ "obj-20", 0 ],
					"destination" : [ "obj-8", 0 ],
					"hidden" : 0,
					"midpoints" : [  ]
				}

			}
, 			{
				"patchline" : 				{
					"source" : [ "obj-23", 1 ],
					"destination" : [ "obj-25", 0 ],
					"hidden" : 0,
					"midpoints" : [ 441.5, 357.0, 626.0, 357.0, 626.0, 82.0, 391.0, 82.0 ]
				}

			}
, 			{
				"patchline" : 				{
					"source" : [ "obj-6", 1 ],
					"destination" : [ "obj-25", 0 ],
					"hidden" : 0,
					"midpoints" : [  ]
				}

			}
, 			{
				"patchline" : 				{
					"source" : [ "obj-19", 0 ],
					"destination" : [ "obj-29", 0 ],
					"hidden" : 0,
					"midpoints" : [  ]
				}

			}
, 			{
				"patchline" : 				{
					"source" : [ "obj-24", 0 ],
					"destination" : [ "obj-19", 0 ],
					"hidden" : 0,
					"midpoints" : [  ]
				}

			}
, 			{
				"patchline" : 				{
					"source" : [ "obj-25", 0 ],
					"destination" : [ "obj-24", 0 ],
					"hidden" : 0,
					"midpoints" : [  ]
				}

			}
, 			{
				"patchline" : 				{
					"source" : [ "obj-29", 0 ],
					"destination" : [ "obj-31", 1 ],
					"hidden" : 0,
					"midpoints" : [  ]
				}

			}
, 			{
				"patchline" : 				{
					"source" : [ "obj-13", 0 ],
					"destination" : [ "obj-21", 4 ],
					"hidden" : 0,
					"midpoints" : [  ]
				}

			}
, 			{
				"patchline" : 				{
					"source" : [ "obj-7", 0 ],
					"destination" : [ "obj-21", 3 ],
					"hidden" : 0,
					"midpoints" : [  ]
				}

			}
, 			{
				"patchline" : 				{
					"source" : [ "obj-32", 0 ],
					"destination" : [ "obj-15", 0 ],
					"hidden" : 0,
					"midpoints" : [  ]
				}

			}
, 			{
				"patchline" : 				{
					"source" : [ "obj-31", 0 ],
					"destination" : [ "obj-32", 0 ],
					"hidden" : 0,
					"midpoints" : [  ]
				}

			}
, 			{
				"patchline" : 				{
					"source" : [ "obj-5", 0 ],
					"destination" : [ "obj-31", 0 ],
					"hidden" : 0,
					"midpoints" : [  ]
				}

			}
, 			{
				"patchline" : 				{
					"source" : [ "obj-30", 0 ],
					"destination" : [ "obj-31", 0 ],
					"hidden" : 0,
					"midpoints" : [  ]
				}

			}
, 			{
				"patchline" : 				{
					"source" : [ "obj-22", 0 ],
					"destination" : [ "obj-7", 0 ],
					"hidden" : 0,
					"midpoints" : [  ]
				}

			}
, 			{
				"patchline" : 				{
					"source" : [ "obj-21", 0 ],
					"destination" : [ "obj-30", 0 ],
					"hidden" : 0,
					"midpoints" : [  ]
				}

			}
, 			{
				"patchline" : 				{
					"source" : [ "obj-27", 0 ],
					"destination" : [ "obj-21", 0 ],
					"hidden" : 0,
					"midpoints" : [  ]
				}

			}
, 			{
				"patchline" : 				{
					"source" : [ "obj-14", 0 ],
					"destination" : [ "obj-27", 0 ],
					"hidden" : 0,
					"midpoints" : [  ]
				}

			}
, 			{
				"patchline" : 				{
					"source" : [ "obj-25", 0 ],
					"destination" : [ "obj-27", 0 ],
					"hidden" : 0,
					"midpoints" : [  ]
				}

			}
, 			{
				"patchline" : 				{
					"source" : [ "obj-16", 0 ],
					"destination" : [ "obj-6", 0 ],
					"hidden" : 0,
					"midpoints" : [  ]
				}

			}
, 			{
				"patchline" : 				{
					"source" : [ "obj-27", 0 ],
					"destination" : [ "obj-10", 0 ],
					"hidden" : 0,
					"midpoints" : [  ]
				}

			}
, 			{
				"patchline" : 				{
					"source" : [ "obj-4", 0 ],
					"destination" : [ "obj-5", 0 ],
					"hidden" : 0,
					"midpoints" : [  ]
				}

			}
, 			{
				"patchline" : 				{
					"source" : [ "obj-6", 0 ],
					"destination" : [ "obj-5", 0 ],
					"hidden" : 0,
					"midpoints" : [  ]
				}

			}
, 			{
				"patchline" : 				{
					"source" : [ "obj-1", 0 ],
					"destination" : [ "obj-4", 0 ],
					"hidden" : 0,
					"midpoints" : [  ]
				}

			}
, 			{
				"patchline" : 				{
					"source" : [ "obj-3", 0 ],
					"destination" : [ "obj-1", 0 ],
					"hidden" : 0,
					"midpoints" : [  ]
				}

			}
, 			{
				"patchline" : 				{
					"source" : [ "obj-2", 0 ],
					"destination" : [ "obj-3", 0 ],
					"hidden" : 0,
					"midpoints" : [  ]
				}

			}
 ]
	}

}
