{
	"patcher" : 	{
		"fileversion" : 1,
		"rect" : [ 90.0, 44.0, 917.0, 706.0 ],
		"bglocked" : 0,
		"defrect" : [ 90.0, 44.0, 917.0, 706.0 ],
		"openrect" : [ 0.0, 0.0, 0.0, 0.0 ],
		"openinpresentation" : 0,
		"default_fontsize" : 12.0,
		"default_fontface" : 0,
		"default_fontname" : "Arial",
		"gridonopen" : 0,
		"gridsize" : [ 15.0, 15.0 ],
		"gridsnaponopen" : 0,
		"toolbarvisible" : 1,
		"boxanimatetime" : 200,
		"imprint" : 0,
		"enablehscroll" : 1,
		"enablevscroll" : 1,
		"devicewidth" : 0.0,
		"boxes" : [ 			{
				"box" : 				{
					"maxclass" : "comment",
					"text" : "if 1to2 is off (for example), then no pitch gets sent out of the step-convert below string 1, leaving the pitch-st2 above string 2 to receive from whereever.",
					"linecount" : 5,
					"patching_rect" : [ 174.0, 586.0, 206.0, 75.0 ],
					"fontsize" : 12.0,
					"numinlets" : 1,
					"numoutlets" : 0,
					"id" : "obj-47",
					"fontname" : "Arial"
				}

			}
, 			{
				"box" : 				{
					"maxclass" : "comment",
					"text" : "this gate sends the next pitch to it's location - for ex the step convert below string 1 sends to string 2.",
					"linecount" : 4,
					"patching_rect" : [ 623.0, 552.0, 184.0, 62.0 ],
					"fontsize" : 12.0,
					"numinlets" : 1,
					"numoutlets" : 0,
					"id" : "obj-45",
					"fontname" : "Arial"
				}

			}
, 			{
				"box" : 				{
					"maxclass" : "newobj",
					"text" : "r 7to8",
					"patching_rect" : [ 323.0, 344.0, 41.0, 20.0 ],
					"fontsize" : 12.0,
					"numinlets" : 0,
					"numoutlets" : 1,
					"id" : "obj-23",
					"fontname" : "Arial",
					"outlettype" : [ "" ]
				}

			}
, 			{
				"box" : 				{
					"maxclass" : "newobj",
					"text" : "r 6to7",
					"patching_rect" : [ 301.0, 369.0, 41.0, 20.0 ],
					"fontsize" : 12.0,
					"numinlets" : 0,
					"numoutlets" : 1,
					"id" : "obj-30",
					"fontname" : "Arial",
					"outlettype" : [ "" ]
				}

			}
, 			{
				"box" : 				{
					"maxclass" : "newobj",
					"text" : "r 5to6",
					"patching_rect" : [ 279.0, 344.0, 41.0, 20.0 ],
					"fontsize" : 12.0,
					"numinlets" : 0,
					"numoutlets" : 1,
					"id" : "obj-24",
					"fontname" : "Arial",
					"outlettype" : [ "" ]
				}

			}
, 			{
				"box" : 				{
					"maxclass" : "newobj",
					"text" : "r 4to5",
					"patching_rect" : [ 257.0, 369.0, 41.0, 20.0 ],
					"fontsize" : 12.0,
					"numinlets" : 0,
					"numoutlets" : 1,
					"id" : "obj-25",
					"fontname" : "Arial",
					"outlettype" : [ "" ]
				}

			}
, 			{
				"box" : 				{
					"maxclass" : "newobj",
					"text" : "r 3to4",
					"patching_rect" : [ 235.0, 344.0, 41.0, 20.0 ],
					"fontsize" : 12.0,
					"numinlets" : 0,
					"numoutlets" : 1,
					"id" : "obj-26",
					"fontname" : "Arial",
					"outlettype" : [ "" ]
				}

			}
, 			{
				"box" : 				{
					"maxclass" : "newobj",
					"text" : "r 2to3",
					"patching_rect" : [ 213.0, 369.0, 41.0, 20.0 ],
					"fontsize" : 12.0,
					"numinlets" : 0,
					"numoutlets" : 1,
					"id" : "obj-27",
					"fontname" : "Arial",
					"outlettype" : [ "" ]
				}

			}
, 			{
				"box" : 				{
					"maxclass" : "newobj",
					"text" : "r 1to2",
					"patching_rect" : [ 191.0, 344.0, 41.0, 20.0 ],
					"fontsize" : 12.0,
					"numinlets" : 0,
					"numoutlets" : 1,
					"id" : "obj-42",
					"fontname" : "Arial",
					"outlettype" : [ "" ]
				}

			}
, 			{
				"box" : 				{
					"maxclass" : "newobj",
					"text" : "switch 7",
					"patching_rect" : [ 169.0, 403.0, 113.5, 20.0 ],
					"fontsize" : 12.0,
					"numinlets" : 8,
					"numoutlets" : 1,
					"id" : "obj-10",
					"fontname" : "Arial",
					"outlettype" : [ "" ]
				}

			}
, 			{
				"box" : 				{
					"maxclass" : "newobj",
					"text" : "select 1",
					"patching_rect" : [ 169.0, 455.0, 52.0, 20.0 ],
					"fontsize" : 12.0,
					"numinlets" : 2,
					"numoutlets" : 2,
					"id" : "obj-15",
					"fontname" : "Arial",
					"outlettype" : [ "bang", "" ]
				}

			}
, 			{
				"box" : 				{
					"maxclass" : "toggle",
					"patching_rect" : [ 169.0, 427.0, 20.0, 20.0 ],
					"numinlets" : 1,
					"numoutlets" : 1,
					"id" : "obj-11",
					"outlettype" : [ "int" ]
				}

			}
, 			{
				"box" : 				{
					"maxclass" : "newobj",
					"text" : "int",
					"patching_rect" : [ 169.0, 496.0, 32.5, 20.0 ],
					"fontsize" : 12.0,
					"numinlets" : 2,
					"numoutlets" : 1,
					"id" : "obj-9",
					"fontname" : "Arial",
					"outlettype" : [ "int" ]
				}

			}
, 			{
				"box" : 				{
					"maxclass" : "number",
					"patching_rect" : [ 510.0, 450.0, 50.0, 20.0 ],
					"fontsize" : 12.0,
					"numinlets" : 1,
					"numoutlets" : 2,
					"id" : "obj-20",
					"fontname" : "Arial",
					"outlettype" : [ "int", "bang" ]
				}

			}
, 			{
				"box" : 				{
					"maxclass" : "flonum",
					"bgcolor" : [ 0.866667, 0.866667, 0.866667, 1.0 ],
					"patching_rect" : [ 518.0, 96.0, 40.0, 20.0 ],
					"htextcolor" : [ 0.870588, 0.870588, 0.870588, 1.0 ],
					"fontsize" : 12.0,
					"numinlets" : 1,
					"triscale" : 0.9,
					"numoutlets" : 2,
					"id" : "obj-1",
					"fontname" : "Arial",
					"outlettype" : [ "float", "bang" ]
				}

			}
, 			{
				"box" : 				{
					"maxclass" : "flonum",
					"bgcolor" : [ 0.866667, 0.866667, 0.866667, 1.0 ],
					"patching_rect" : [ 417.0, 76.0, 40.0, 20.0 ],
					"htextcolor" : [ 0.870588, 0.870588, 0.870588, 1.0 ],
					"fontsize" : 12.0,
					"numinlets" : 1,
					"triscale" : 0.9,
					"numoutlets" : 2,
					"id" : "obj-2",
					"fontname" : "Arial",
					"outlettype" : [ "float", "bang" ]
				}

			}
, 			{
				"box" : 				{
					"maxclass" : "flonum",
					"bgcolor" : [ 0.866667, 0.866667, 0.866667, 1.0 ],
					"patching_rect" : [ 446.0, 335.0, 62.0, 20.0 ],
					"htextcolor" : [ 0.870588, 0.870588, 0.870588, 1.0 ],
					"fontsize" : 12.0,
					"numinlets" : 1,
					"triscale" : 0.9,
					"numoutlets" : 2,
					"id" : "obj-3",
					"fontname" : "Arial",
					"outlettype" : [ "float", "bang" ]
				}

			}
, 			{
				"box" : 				{
					"maxclass" : "newobj",
					"text" : "s adder",
					"patching_rect" : [ 571.0, 159.0, 55.0, 20.0 ],
					"fontsize" : 12.0,
					"numinlets" : 1,
					"numoutlets" : 0,
					"id" : "obj-5",
					"fontname" : "Arial"
				}

			}
, 			{
				"box" : 				{
					"maxclass" : "gswitch2",
					"patching_rect" : [ 347.0, 74.0, 39.0, 32.0 ],
					"numinlets" : 2,
					"numoutlets" : 2,
					"id" : "obj-6",
					"outlettype" : [ "", "" ]
				}

			}
, 			{
				"box" : 				{
					"maxclass" : "newobj",
					"text" : "r pitch-scale",
					"patching_rect" : [ 533.0, 41.0, 88.0, 20.0 ],
					"fontsize" : 12.0,
					"numinlets" : 0,
					"numoutlets" : 1,
					"id" : "obj-7",
					"fontname" : "Arial",
					"outlettype" : [ "" ]
				}

			}
, 			{
				"box" : 				{
					"maxclass" : "newobj",
					"text" : "+ 0.",
					"patching_rect" : [ 497.0, 303.0, 33.0, 20.0 ],
					"fontsize" : 12.0,
					"numinlets" : 2,
					"numoutlets" : 1,
					"id" : "obj-8",
					"fontname" : "Arial",
					"outlettype" : [ "float" ]
				}

			}
, 			{
				"box" : 				{
					"maxclass" : "message",
					"text" : "0",
					"patching_rect" : [ 464.0, 473.0, 18.0, 18.0 ],
					"fontsize" : 12.0,
					"numinlets" : 2,
					"numoutlets" : 1,
					"id" : "obj-16",
					"fontname" : "Arial",
					"outlettype" : [ "" ]
				}

			}
, 			{
				"box" : 				{
					"maxclass" : "newobj",
					"text" : "split 1 8",
					"patching_rect" : [ 447.0, 450.0, 60.0, 20.0 ],
					"fontsize" : 12.0,
					"numinlets" : 3,
					"numoutlets" : 2,
					"id" : "obj-17",
					"fontname" : "Arial",
					"outlettype" : [ "int", "int" ]
				}

			}
, 			{
				"box" : 				{
					"maxclass" : "flonum",
					"bgcolor" : [ 0.866667, 0.866667, 0.866667, 1.0 ],
					"patching_rect" : [ 563.0, 444.0, 40.0, 20.0 ],
					"htextcolor" : [ 0.870588, 0.870588, 0.870588, 1.0 ],
					"fontsize" : 12.0,
					"numinlets" : 1,
					"triscale" : 0.9,
					"numoutlets" : 2,
					"id" : "obj-28",
					"fontname" : "Arial",
					"outlettype" : [ "float", "bang" ]
				}

			}
, 			{
				"box" : 				{
					"maxclass" : "flonum",
					"bgcolor" : [ 0.866667, 0.866667, 0.866667, 1.0 ],
					"patching_rect" : [ 448.0, 385.0, 40.0, 20.0 ],
					"htextcolor" : [ 0.870588, 0.870588, 0.870588, 1.0 ],
					"fontsize" : 12.0,
					"numinlets" : 1,
					"triscale" : 0.9,
					"numoutlets" : 2,
					"id" : "obj-29",
					"fontname" : "Arial",
					"outlettype" : [ "float", "bang" ]
				}

			}
, 			{
				"box" : 				{
					"maxclass" : "number",
					"bgcolor" : [ 0.866667, 0.866667, 0.866667, 1.0 ],
					"patching_rect" : [ 174.0, 129.0, 37.0, 20.0 ],
					"htextcolor" : [ 0.870588, 0.870588, 0.870588, 1.0 ],
					"fontsize" : 12.0,
					"numinlets" : 1,
					"triscale" : 0.9,
					"numoutlets" : 2,
					"id" : "obj-31",
					"fontname" : "Arial",
					"outlettype" : [ "int", "bang" ]
				}

			}
, 			{
				"box" : 				{
					"maxclass" : "newobj",
					"text" : "+ 1",
					"patching_rect" : [ 447.0, 424.0, 34.0, 20.0 ],
					"fontsize" : 12.0,
					"numinlets" : 2,
					"numoutlets" : 1,
					"id" : "obj-32",
					"fontname" : "Arial",
					"outlettype" : [ "int" ]
				}

			}
, 			{
				"box" : 				{
					"maxclass" : "newobj",
					"text" : "s pitch-st8",
					"patching_rect" : [ 554.0, 640.0, 76.0, 20.0 ],
					"fontsize" : 12.0,
					"numinlets" : 1,
					"numoutlets" : 0,
					"id" : "obj-33",
					"fontname" : "Arial"
				}

			}
, 			{
				"box" : 				{
					"maxclass" : "newobj",
					"text" : "s pitch-st7",
					"patching_rect" : [ 543.0, 617.0, 76.0, 20.0 ],
					"fontsize" : 12.0,
					"numinlets" : 1,
					"numoutlets" : 0,
					"id" : "obj-34",
					"fontname" : "Arial"
				}

			}
, 			{
				"box" : 				{
					"maxclass" : "newobj",
					"text" : "s pitch-st6",
					"patching_rect" : [ 528.0, 596.0, 76.0, 20.0 ],
					"fontsize" : 12.0,
					"numinlets" : 1,
					"numoutlets" : 0,
					"id" : "obj-35",
					"fontname" : "Arial"
				}

			}
, 			{
				"box" : 				{
					"maxclass" : "newobj",
					"text" : "s pitch-st5",
					"patching_rect" : [ 515.0, 572.0, 76.0, 20.0 ],
					"fontsize" : 12.0,
					"numinlets" : 1,
					"numoutlets" : 0,
					"id" : "obj-36",
					"fontname" : "Arial"
				}

			}
, 			{
				"box" : 				{
					"maxclass" : "newobj",
					"text" : "s pitch-st4",
					"patching_rect" : [ 476.0, 640.0, 76.0, 20.0 ],
					"fontsize" : 12.0,
					"numinlets" : 1,
					"numoutlets" : 0,
					"id" : "obj-37",
					"fontname" : "Arial"
				}

			}
, 			{
				"box" : 				{
					"maxclass" : "newobj",
					"text" : "s pitch-st3",
					"patching_rect" : [ 463.0, 617.0, 76.0, 20.0 ],
					"fontsize" : 12.0,
					"numinlets" : 1,
					"numoutlets" : 0,
					"id" : "obj-38",
					"fontname" : "Arial"
				}

			}
, 			{
				"box" : 				{
					"maxclass" : "newobj",
					"text" : "s pitch-st2",
					"patching_rect" : [ 450.0, 596.0, 76.0, 20.0 ],
					"fontsize" : 12.0,
					"numinlets" : 1,
					"numoutlets" : 0,
					"id" : "obj-39",
					"fontname" : "Arial"
				}

			}
, 			{
				"box" : 				{
					"maxclass" : "newobj",
					"text" : "gate 8",
					"patching_rect" : [ 447.0, 548.0, 130.0, 20.0 ],
					"fontsize" : 12.0,
					"numinlets" : 2,
					"numoutlets" : 8,
					"id" : "obj-40",
					"fontname" : "Arial",
					"outlettype" : [ "", "", "", "", "", "", "", "" ]
				}

			}
, 			{
				"box" : 				{
					"maxclass" : "newobj",
					"text" : "s pitch-st1",
					"patching_rect" : [ 437.0, 572.0, 76.0, 20.0 ],
					"fontsize" : 12.0,
					"numinlets" : 1,
					"numoutlets" : 0,
					"id" : "obj-41",
					"fontname" : "Arial"
				}

			}
, 			{
				"box" : 				{
					"maxclass" : "inlet",
					"patching_rect" : [ 169.0, 86.0, 25.0, 25.0 ],
					"numinlets" : 0,
					"numoutlets" : 1,
					"id" : "obj-43",
					"outlettype" : [ "" ],
					"comment" : "string #"
				}

			}
, 			{
				"box" : 				{
					"maxclass" : "flonum",
					"bgcolor" : [ 0.866667, 0.866667, 0.866667, 1.0 ],
					"patching_rect" : [ 584.0, 332.0, 90.0, 20.0 ],
					"htextcolor" : [ 0.870588, 0.870588, 0.870588, 1.0 ],
					"fontsize" : 12.0,
					"numinlets" : 1,
					"triscale" : 0.9,
					"numoutlets" : 2,
					"id" : "obj-56",
					"fontname" : "Arial",
					"outlettype" : [ "float", "bang" ]
				}

			}
, 			{
				"box" : 				{
					"maxclass" : "newobj",
					"text" : "mtof",
					"patching_rect" : [ 542.0, 331.0, 39.0, 20.0 ],
					"fontsize" : 12.0,
					"numinlets" : 1,
					"numoutlets" : 1,
					"id" : "obj-57",
					"fontname" : "Arial",
					"outlettype" : [ "" ]
				}

			}
, 			{
				"box" : 				{
					"maxclass" : "newobj",
					"text" : "+ 0.",
					"patching_rect" : [ 542.0, 303.0, 33.0, 20.0 ],
					"fontsize" : 12.0,
					"numinlets" : 2,
					"numoutlets" : 1,
					"id" : "obj-58",
					"fontname" : "Arial",
					"outlettype" : [ "float" ]
				}

			}
, 			{
				"box" : 				{
					"maxclass" : "flonum",
					"bgcolor" : [ 0.866667, 0.866667, 0.866667, 1.0 ],
					"patching_rect" : [ 407.0, 155.0, 114.0, 20.0 ],
					"htextcolor" : [ 0.870588, 0.870588, 0.870588, 1.0 ],
					"fontsize" : 12.0,
					"numinlets" : 1,
					"triscale" : 0.9,
					"numoutlets" : 2,
					"id" : "obj-59",
					"fontname" : "Arial",
					"outlettype" : [ "float", "bang" ]
				}

			}
, 			{
				"box" : 				{
					"maxclass" : "inlet",
					"patching_rect" : [ 559.0, 94.0, 25.0, 25.0 ],
					"numinlets" : 0,
					"numoutlets" : 1,
					"id" : "obj-60",
					"outlettype" : [ "" ],
					"comment" : "interval above"
				}

			}
, 			{
				"box" : 				{
					"maxclass" : "inlet",
					"patching_rect" : [ 376.0, 39.0, 25.0, 25.0 ],
					"numinlets" : 0,
					"numoutlets" : 1,
					"id" : "obj-61",
					"outlettype" : [ "" ],
					"comment" : "freq in"
				}

			}
, 			{
				"box" : 				{
					"maxclass" : "newobj",
					"text" : "expr log10($f1/8.175798) / log10(1.0594633)",
					"patching_rect" : [ 390.0, 127.0, 304.0, 20.0 ],
					"fontsize" : 12.0,
					"numinlets" : 1,
					"numoutlets" : 1,
					"id" : "obj-62",
					"fontname" : "Arial",
					"outlettype" : [ "" ]
				}

			}
, 			{
				"box" : 				{
					"maxclass" : "comment",
					"text" : "string #",
					"patching_rect" : [ 191.0, 106.0, 65.0, 20.0 ],
					"fontsize" : 12.0,
					"numinlets" : 1,
					"numoutlets" : 0,
					"id" : "obj-63",
					"fontname" : "Arial"
				}

			}
, 			{
				"box" : 				{
					"maxclass" : "comment",
					"text" : "0 = hz 1= halfsteps",
					"linecount" : 2,
					"patching_rect" : [ 406.0, 38.0, 79.0, 34.0 ],
					"fontsize" : 12.0,
					"numinlets" : 1,
					"numoutlets" : 0,
					"id" : "obj-64",
					"fontname" : "Arial"
				}

			}
, 			{
				"box" : 				{
					"maxclass" : "comment",
					"text" : "used by \"octaver\" in midi-player patch",
					"linecount" : 2,
					"patching_rect" : [ 625.0, 159.0, 126.0, 34.0 ],
					"fontsize" : 12.0,
					"numinlets" : 1,
					"numoutlets" : 0,
					"id" : "obj-65",
					"fontname" : "Arial"
				}

			}
 ],
		"lines" : [ 			{
				"patchline" : 				{
					"source" : [ "obj-9", 0 ],
					"destination" : [ "obj-40", 0 ],
					"hidden" : 0,
					"midpoints" : [  ]
				}

			}
, 			{
				"patchline" : 				{
					"source" : [ "obj-17", 0 ],
					"destination" : [ "obj-9", 1 ],
					"hidden" : 0,
					"midpoints" : [  ]
				}

			}
, 			{
				"patchline" : 				{
					"source" : [ "obj-16", 0 ],
					"destination" : [ "obj-9", 1 ],
					"hidden" : 0,
					"midpoints" : [  ]
				}

			}
, 			{
				"patchline" : 				{
					"source" : [ "obj-32", 0 ],
					"destination" : [ "obj-20", 0 ],
					"hidden" : 0,
					"midpoints" : [  ]
				}

			}
, 			{
				"patchline" : 				{
					"source" : [ "obj-57", 0 ],
					"destination" : [ "obj-40", 1 ],
					"hidden" : 0,
					"midpoints" : [  ]
				}

			}
, 			{
				"patchline" : 				{
					"source" : [ "obj-8", 0 ],
					"destination" : [ "obj-40", 1 ],
					"hidden" : 0,
					"midpoints" : [  ]
				}

			}
, 			{
				"patchline" : 				{
					"source" : [ "obj-8", 0 ],
					"destination" : [ "obj-3", 0 ],
					"hidden" : 0,
					"midpoints" : [  ]
				}

			}
, 			{
				"patchline" : 				{
					"source" : [ "obj-57", 0 ],
					"destination" : [ "obj-56", 0 ],
					"hidden" : 0,
					"midpoints" : [  ]
				}

			}
, 			{
				"patchline" : 				{
					"source" : [ "obj-60", 0 ],
					"destination" : [ "obj-5", 0 ],
					"hidden" : 0,
					"midpoints" : [  ]
				}

			}
, 			{
				"patchline" : 				{
					"source" : [ "obj-60", 0 ],
					"destination" : [ "obj-58", 1 ],
					"hidden" : 0,
					"midpoints" : [  ]
				}

			}
, 			{
				"patchline" : 				{
					"source" : [ "obj-40", 7 ],
					"destination" : [ "obj-33", 0 ],
					"hidden" : 0,
					"midpoints" : [  ]
				}

			}
, 			{
				"patchline" : 				{
					"source" : [ "obj-28", 0 ],
					"destination" : [ "obj-40", 1 ],
					"hidden" : 0,
					"midpoints" : [  ]
				}

			}
, 			{
				"patchline" : 				{
					"source" : [ "obj-58", 0 ],
					"destination" : [ "obj-57", 0 ],
					"hidden" : 0,
					"midpoints" : [  ]
				}

			}
, 			{
				"patchline" : 				{
					"source" : [ "obj-62", 0 ],
					"destination" : [ "obj-58", 0 ],
					"hidden" : 0,
					"midpoints" : [  ]
				}

			}
, 			{
				"patchline" : 				{
					"source" : [ "obj-40", 6 ],
					"destination" : [ "obj-34", 0 ],
					"hidden" : 0,
					"midpoints" : [  ]
				}

			}
, 			{
				"patchline" : 				{
					"source" : [ "obj-40", 5 ],
					"destination" : [ "obj-35", 0 ],
					"hidden" : 0,
					"midpoints" : [  ]
				}

			}
, 			{
				"patchline" : 				{
					"source" : [ "obj-60", 0 ],
					"destination" : [ "obj-1", 0 ],
					"hidden" : 0,
					"midpoints" : [  ]
				}

			}
, 			{
				"patchline" : 				{
					"source" : [ "obj-60", 0 ],
					"destination" : [ "obj-8", 1 ],
					"hidden" : 0,
					"midpoints" : [  ]
				}

			}
, 			{
				"patchline" : 				{
					"source" : [ "obj-40", 4 ],
					"destination" : [ "obj-36", 0 ],
					"hidden" : 0,
					"midpoints" : [  ]
				}

			}
, 			{
				"patchline" : 				{
					"source" : [ "obj-6", 0 ],
					"destination" : [ "obj-8", 0 ],
					"hidden" : 0,
					"midpoints" : [  ]
				}

			}
, 			{
				"patchline" : 				{
					"source" : [ "obj-40", 3 ],
					"destination" : [ "obj-37", 0 ],
					"hidden" : 0,
					"midpoints" : [  ]
				}

			}
, 			{
				"patchline" : 				{
					"source" : [ "obj-40", 2 ],
					"destination" : [ "obj-38", 0 ],
					"hidden" : 0,
					"midpoints" : [  ]
				}

			}
, 			{
				"patchline" : 				{
					"source" : [ "obj-17", 1 ],
					"destination" : [ "obj-16", 0 ],
					"hidden" : 0,
					"midpoints" : [  ]
				}

			}
, 			{
				"patchline" : 				{
					"source" : [ "obj-40", 1 ],
					"destination" : [ "obj-39", 0 ],
					"hidden" : 0,
					"midpoints" : [  ]
				}

			}
, 			{
				"patchline" : 				{
					"source" : [ "obj-40", 0 ],
					"destination" : [ "obj-41", 0 ],
					"hidden" : 0,
					"midpoints" : [  ]
				}

			}
, 			{
				"patchline" : 				{
					"source" : [ "obj-17", 0 ],
					"destination" : [ "obj-40", 0 ],
					"hidden" : 0,
					"midpoints" : [  ]
				}

			}
, 			{
				"patchline" : 				{
					"source" : [ "obj-16", 0 ],
					"destination" : [ "obj-40", 0 ],
					"hidden" : 0,
					"midpoints" : [  ]
				}

			}
, 			{
				"patchline" : 				{
					"source" : [ "obj-32", 0 ],
					"destination" : [ "obj-17", 0 ],
					"hidden" : 0,
					"midpoints" : [  ]
				}

			}
, 			{
				"patchline" : 				{
					"source" : [ "obj-29", 0 ],
					"destination" : [ "obj-32", 0 ],
					"hidden" : 0,
					"midpoints" : [  ]
				}

			}
, 			{
				"patchline" : 				{
					"source" : [ "obj-43", 0 ],
					"destination" : [ "obj-32", 0 ],
					"hidden" : 0,
					"midpoints" : [  ]
				}

			}
, 			{
				"patchline" : 				{
					"source" : [ "obj-61", 0 ],
					"destination" : [ "obj-2", 0 ],
					"hidden" : 0,
					"midpoints" : [  ]
				}

			}
, 			{
				"patchline" : 				{
					"source" : [ "obj-62", 0 ],
					"destination" : [ "obj-59", 0 ],
					"hidden" : 0,
					"midpoints" : [  ]
				}

			}
, 			{
				"patchline" : 				{
					"source" : [ "obj-6", 1 ],
					"destination" : [ "obj-62", 0 ],
					"hidden" : 0,
					"midpoints" : [  ]
				}

			}
, 			{
				"patchline" : 				{
					"source" : [ "obj-61", 0 ],
					"destination" : [ "obj-6", 1 ],
					"hidden" : 0,
					"midpoints" : [  ]
				}

			}
, 			{
				"patchline" : 				{
					"source" : [ "obj-7", 0 ],
					"destination" : [ "obj-6", 0 ],
					"hidden" : 0,
					"midpoints" : [  ]
				}

			}
, 			{
				"patchline" : 				{
					"source" : [ "obj-43", 0 ],
					"destination" : [ "obj-31", 0 ],
					"hidden" : 0,
					"midpoints" : [  ]
				}

			}
, 			{
				"patchline" : 				{
					"source" : [ "obj-11", 0 ],
					"destination" : [ "obj-15", 0 ],
					"hidden" : 0,
					"midpoints" : [  ]
				}

			}
, 			{
				"patchline" : 				{
					"source" : [ "obj-15", 1 ],
					"destination" : [ "obj-40", 0 ],
					"hidden" : 0,
					"midpoints" : [  ]
				}

			}
, 			{
				"patchline" : 				{
					"source" : [ "obj-15", 0 ],
					"destination" : [ "obj-9", 0 ],
					"hidden" : 0,
					"midpoints" : [  ]
				}

			}
, 			{
				"patchline" : 				{
					"source" : [ "obj-43", 0 ],
					"destination" : [ "obj-10", 0 ],
					"hidden" : 0,
					"midpoints" : [  ]
				}

			}
, 			{
				"patchline" : 				{
					"source" : [ "obj-10", 0 ],
					"destination" : [ "obj-11", 0 ],
					"hidden" : 0,
					"midpoints" : [  ]
				}

			}
, 			{
				"patchline" : 				{
					"source" : [ "obj-42", 0 ],
					"destination" : [ "obj-10", 1 ],
					"hidden" : 0,
					"midpoints" : [  ]
				}

			}
, 			{
				"patchline" : 				{
					"source" : [ "obj-27", 0 ],
					"destination" : [ "obj-10", 2 ],
					"hidden" : 0,
					"midpoints" : [  ]
				}

			}
, 			{
				"patchline" : 				{
					"source" : [ "obj-26", 0 ],
					"destination" : [ "obj-10", 3 ],
					"hidden" : 0,
					"midpoints" : [  ]
				}

			}
, 			{
				"patchline" : 				{
					"source" : [ "obj-25", 0 ],
					"destination" : [ "obj-10", 4 ],
					"hidden" : 0,
					"midpoints" : [  ]
				}

			}
, 			{
				"patchline" : 				{
					"source" : [ "obj-24", 0 ],
					"destination" : [ "obj-10", 5 ],
					"hidden" : 0,
					"midpoints" : [  ]
				}

			}
, 			{
				"patchline" : 				{
					"source" : [ "obj-30", 0 ],
					"destination" : [ "obj-10", 6 ],
					"hidden" : 0,
					"midpoints" : [  ]
				}

			}
, 			{
				"patchline" : 				{
					"source" : [ "obj-23", 0 ],
					"destination" : [ "obj-10", 7 ],
					"hidden" : 0,
					"midpoints" : [  ]
				}

			}
 ]
	}

}
